{
  "accessors": [
    {
      "bufferView": 2,
      "componentType": 5126,
      "count": 497,
      "max": [
        -95.45051574707031,
        13.03000259399414,
        -18.941131591796875
      ],
      "min": [
        -115.21282958984375,
        -6.588224411010742,
        -26.892120361328125
      ],
      "type": "VEC3"
    },
    {
      "bufferView": 2,
      "byteOffset": 5964,
      "componentType": 5126,
      "count": 497,
      "max": [
        0.953101396560669,
        0.9461526870727539,
        1.0
      ],
      "min": [
        -0.9531015157699585,
        -0.946152925491333,
        -1.0
      ],
      "type": "VEC3"
    },
    {
      "bufferView": 1,
      "componentType": 5126,
      "count": 497,
      "max": [
        0.9971572756767273,
        0.3730318248271942
      ],
      "min": [
        0.616136372089386,
        0.009982999414205551
      ],
      "type": "VEC2"
    },
    {
      "bufferView": 0,
      "componentType": 5125,
      "count": 1554,
      "type": "SCALAR"
    },
    {
      "bufferView": 2,
      "byteOffset": 11928,
      "componentType": 5126,
      "count": 497,
      "max": [
        -95.45051574707031,
        13.03000259399414,
        -18.941131591796875
      ],
      "min": [
        -115.21282958984375,
        -6.588224411010742,
        -26.892120361328125
      ],
      "type": "VEC3"
    },
    {
      "bufferView": 2,
      "byteOffset": 17892,
      "componentType": 5126,
      "count": 497,
      "max": [
        0.953101396560669,
        0.9461526870727539,
        1.0
      ],
      "min": [
        -0.9531015157699585,
        -0.946152925491333,
        -1.0
      ],
      "type": "VEC3"
    },
    {
      "bufferView": 1,
      "byteOffset": 3976,
      "componentType": 5126,
      "count": 497,
      "max": [
        0.9971572756767273,
        0.3730318248271942
      ],
      "min": [
        0.616136372089386,
        0.009982999414205551
      ],
      "type": "VEC2"
    },
    {
      "bufferView": 0,
      "byteOffset": 6216,
      "componentType": 5125,
      "count": 1554,
      "type": "SCALAR"
    },
    {
      "bufferView": 2,
      "byteOffset": 23856,
      "componentType": 5126,
      "count": 388,
      "max": [
        -95.45051574707031,
        13.030004501342773,
        26.892114639282227
      ],
      "min": [
        -115.21282958984375,
        -6.588221073150635,
        18.941125869750977
      ],
      "type": "VEC3"
    },
    {
      "bufferView": 2,
      "byteOffset": 28512,
      "componentType": 5126,
      "count": 388,
      "max": [
        0.953101396560669,
        0.9461526870727539,
        1.0
      ],
      "min": [
        -0.953101396560669,
        -0.9461529850959778,
        -1.0
      ],
      "type": "VEC3"
    },
    {
      "bufferView": 1,
      "byteOffset": 7952,
      "componentType": 5126,
      "count": 388,
      "max": [
        0.9971572756767273,
        0.3730318248271942
      ],
      "min": [
        0.616136372089386,
        0.009982999414205551
      ],
      "type": "VEC2"
    },
    {
      "bufferView": 0,
      "byteOffset": 12432,
      "componentType": 5125,
      "count": 1554,
      "type": "SCALAR"
    },
    {
      "bufferView": 2,
      "byteOffset": 33168,
      "componentType": 5126,
      "count": 388,
      "max": [
        -95.45051574707031,
        13.030004501342773,
        26.892114639282227
      ],
      "min": [
        -115.21282958984375,
        -6.588221073150635,
        18.941125869750977
      ],
      "type": "VEC3"
    },
    {
      "bufferView": 2,
      "byteOffset": 37824,
      "componentType": 5126,
      "count": 388,
      "max": [
        0.953101396560669,
        0.9461526870727539,
        1.0
      ],
      "min": [
        -0.953101396560669,
        -0.9461529850959778,
        -1.0
      ],
      "type": "VEC3"
    },
    {
      "bufferView": 1,
      "byteOffset": 11056,
      "componentType": 5126,
      "count": 388,
      "max": [
        0.9971572756767273,
        0.3730318248271942
      ],
      "min": [
        0.616136372089386,
        0.009982999414205551
      ],
      "type": "VEC2"
    },
    {
      "bufferView": 0,
      "byteOffset": 18648,
      "componentType": 5125,
      "count": 1554,
      "type": "SCALAR"
    },
    {
      "bufferView": 2,
      "byteOffset": 42480,
      "componentType": 5126,
      "count": 306,
      "max": [
        -12.932215690612793,
        28.978975296020508,
        22.769596099853516
      ],
      "min": [
        -94.10098266601563,
        19.075931549072266,
        -22.76959800720215
      ],
      "type": "VEC3"
    },
    {
      "bufferView": 2,
      "byteOffset": 46152,
      "componentType": 5126,
      "count": 306,
      "max": [
        0.2888564169406891,
        0.9586383104324341,
        0.9022608995437622
      ],
      "min": [
        -0.4688960611820221,
        0.43058881163597107,
        -0.902260959148407
      ],
      "type": "VEC3"
    },
    {
      "bufferView": 1,
      "byteOffset": 14160,
      "componentType": 5126,
      "count": 306,
      "max": [
        0.9072476625442505,
        0.9956247806549072
      ],
      "min": [
        0.042218491435050964,
        0.10490112751722336
      ],
      "type": "VEC2"
    },
    {
      "bufferView": 0,
      "byteOffset": 24864,
      "componentType": 5125,
      "count": 1062,
      "type": "SCALAR"
    },
    {
      "bufferView": 2,
      "byteOffset": 49824,
      "componentType": 5126,
      "count": 2559,
      "max": [
        4.711455821990967,
        30.6800537109375,
        27.111249923706055
      ],
      "min": [
        -133.37802124023438,
        -1.7005033493041992,
        -27.111257553100586
      ],
      "type": "VEC3"
    },
    {
      "bufferView": 2,
      "byteOffset": 80532,
      "componentType": 5126,
      "count": 2559,
      "max": [
        0.9996083378791809,
        0.9999337196350098,
        0.9999955296516418
      ],
      "min": [
        -0.9995967745780945,
        -0.9958400130271912,
        -0.9999954700469971
      ],
      "type": "VEC3"
    },
    {
      "bufferView": 1,
      "byteOffset": 16608,
      "componentType": 5126,
      "count": 2559,
      "max": [
        0.9981545209884644,
        0.9833027124404907
      ],
      "min": [
        0.0021545395720750093,
        0.00960850715637207
      ],
      "type": "VEC2"
    },
    {
      "bufferView": 0,
      "byteOffset": 29112,
      "componentType": 5125,
      "count": 8286,
      "type": "SCALAR"
    },
    {
      "bufferView": 2,
      "byteOffset": 111240,
      "componentType": 5126,
      "count": 11488,
      "max": [
        4.711455821990967,
        31.662179946899414,
        29.881916046142578
      ],
      "min": [
        -133.2178497314453,
        -4.5226287841796875,
        -29.88191795349121
      ],
      "type": "VEC3"
    },
    {
      "bufferView": 2,
      "byteOffset": 249096,
      "componentType": 5126,
      "count": 11488,
      "max": [
        1.0,
        1.0,
        1.0
      ],
      "min": [
        -1.0,
        -1.0,
        -1.0
      ],
      "type": "VEC3"
    },
    {
      "bufferView": 1,
      "byteOffset": 37080,
      "componentType": 5126,
      "count": 11488,
      "max": [
        0.998054027557373,
        0.9956247806549072
      ],
      "min": [
        0.0011919420212507248,
        0.002184736542403698
      ],
      "type": "VEC2"
    },
    {
      "bufferView": 0,
      "byteOffset": 62256,
      "componentType": 5125,
      "count": 31935,
      "type": "SCALAR"
    },
    {
      "bufferView": 2,
      "byteOffset": 386952,
      "componentType": 5126,
      "count": 545,
      "max": [
        3.013709783554077,
        17.877073287963867,
        24.980804443359375
      ],
      "min": [
        -128.13504028320313,
        9.814112663269043,
        -24.980810165405273
      ],
      "type": "VEC3"
    },
    {
      "bufferView": 2,
      "byteOffset": 393492,
      "componentType": 5126,
      "count": 545,
      "max": [
        0.9845771193504333,
        0.8636685013771057,
        0.9107082486152649
      ],
      "min": [
        -0.9066205620765686,
        -0.9999387264251709,
        -1.0
      ],
      "type": "VEC3"
    },
    {
      "bufferView": 1,
      "byteOffset": 128984,
      "componentType": 5126,
      "count": 545,
      "max": [
        0.9978687763214111,
        0.6557431817054749
      ],
      "min": [
        0.0011919420212507248,
        0.010974439792335033
      ],
      "type": "VEC2"
    },
    {
      "bufferView": 0,
      "byteOffset": 189996,
      "componentType": 5125,
      "count": 1728,
      "type": "SCALAR"
    }
  ],
  "asset": {
    "extras": {
      "author": "Sidra (https://sketchfab.com/Sidramax)",
      "license": "CC-BY-4.0 (http://creativecommons.org/licenses/by/4.0/)",
      "source": "https://sketchfab.com/3d-models/2022-audi-e-tron-gt-785b60b504f94604afc3bf34b315aa58",
      "title": "2022 Audi e-tron GT"
    },
    "generator": "Sketchfab-15.30.0",
    "version": "2.0"
  },
  "bufferViews": [
    {
      "buffer": 0,
      "byteLength": 196908,
      "name": "floatBufferViews",
      "target": 34963
    },
    {
      "buffer": 0,
      "byteLength": 133344,
      "byteOffset": 196908,
      "byteStride": 8,
      "name": "floatBufferViews",
      "target": 34962
    },
    {
      "buffer": 0,
      "byteLength": 400032,
      "byteOffset": 330252,
      "byteStride": 12,
      "name": "floatBufferViews",
      "target": 34962
    }
  ],
  "buffers": [
    {
      "byteLength": 730284,
      "uri": "scene.bin"
    }
  ],
  "extensionsUsed": [
    "KHR_materials_clearcoat",
    "KHR_materials_specular"
  ],
  "images": [
    {
      "uri": "textures/Textures_Body_2_baseColor.png"
    },
    {
      "uri": "textures/Textures_Body_1_baseColor.png"
    }
  ],
  "materials": [
    {
      "doubleSided": true,
      "extensions": {
        "KHR_materials_clearcoat": {
          "clearcoatFactor": 0.2,
          "clearcoatRoughnessFactor": 0.218805291624952
        }
      },
      "name": "Textures_Body_2",
      "pbrMetallicRoughness": {
        "baseColorTexture": {
          "index": 0
        },
        "metallicFactor": 0.0,
        "roughnessFactor": 0.8261314889192629
      }
    },
    {
      "alphaMode": "BLEND",
      "doubleSided": true,
      "extensions": {
        "KHR_materials_clearcoat": {
          "clearcoatFactor": 1.0,
          "clearcoatRoughnessFactor": 0.04
        },
        "KHR_materials_specular": {
          "specularColorFactor": [
            1.0,
            1.0,
            1.0
          ],
          "specularFactor": 0.628081376678819
        }
      },
      "name": "Glass",
      "pbrMetallicRoughness": {
        "baseColorFactor": [
          0.0196078,
          0.0196078,
          0.0196078,
          0.9
        ],
        "metallicFactor": 0.0,
        "roughnessFactor": 0.5356290573427278
      }
    },
    {
      "doubleSided": true,
      "extensions": {
        "KHR_materials_clearcoat": {
          "clearcoatFactor": 0.8043849210097156,
          "clearcoatRoughnessFactor": 0.036205192139380546
        },
        "KHR_materials_specular": {
          "specularColorFactor": [
            1.0,
            1.0,
            1.0
          ],
          "specularFactor": 1.0
        }
      },
      "name": "Textures_Body_1",
      "pbrMetallicRoughness": {
        "baseColorFactor": [
          0.9051298034845136,
          0.9051298034845136,
          0.9051298034845136,
          1.0
        ],
        "baseColorTexture": {
          "index": 1
        },
        "metallicFactor": 0.3510329498731244,
        "roughnessFactor": 0.3908082887852057
      }
    },
    {
      "alphaMode": "BLEND",
      "doubleSided": true,
      "extensions": {
        "KHR_materials_clearcoat": {
          "clearcoatFactor": 1.0,
          "clearcoatRoughnessFactor": 0.04
        }
      },
      "name": "Glass_Light",
      "pbrMetallicRoughness": {
        "baseColorFactor": [
          0.0196078,
          0.0196078,
          0.0196078,
          0.3
        ],
        "metallicFactor": 0.0,
        "roughnessFactor": 0.8612010517801294
      }
    }
  ],
  "meshes": [
    {
      "name": "Wheel_FR_Textures Body 2_0",
      "primitives": [
        {
          "attributes": {
            "NORMAL": 1,
            "POSITION": 0,
            "TEXCOORD_0": 2
          },
          "indices": 3,
          "material": 0,
          "mode": 4
        }
      ]
    },
    {
      "name": "Wheel_BR_Textures Body 2_0",
      "primitives": [
        {
          "attributes": {
            "NORMAL": 5,
            "POSITION": 4,
            "TEXCOORD_0": 6
          },
          "indices": 7,
          "material": 0,
          "mode": 4
        }
      ]
    },
    {
      "name": "Wheel_FL_Textures Body 2_0",
      "primitives": [
        {
          "attributes": {
            "NORMAL": 9,
            "POSITION": 8,
            "TEXCOORD_0": 10
          },
          "indices": 11,
          "material": 0,
          "mode": 4
        }
      ]
    },
    {
      "name": "Wheel_BL_Textures Body 2_0",
      "primitives": [
        {
          "attributes": {
            "NORMAL": 13,
            "POSITION": 12,
            "TEXCOORD_0": 14
          },
          "indices": 15,
          "material": 0,
          "mode": 4
        }
      ]
    },
    {
      "name": "Body_Glass_0",
      "primitives": [
        {
          "attributes": {
            "NORMAL": 17,
            "POSITION": 16,
            "TEXCOORD_0": 18
          },
          "indices": 19,
          "material": 1,
          "mode": 4
        }
      ]
    },
    {
      "name": "Body_Textures Body 1_0",
      "primitives": [
        {
          "attributes": {
            "NORMAL": 21,
            "POSITION": 20,
            "TEXCOORD_0": 22
          },
          "indices": 23,
          "material": 2,
          "mode": 4
        }
      ]
    },
    {
      "name": "Body_Textures Body 2_0",
      "primitives": [
        {
          "attributes": {
            "NORMAL": 25,
            "POSITION": 24,
            "TEXCOORD_0": 26
          },
          "indices": 27,
          "material": 0,
          "mode": 4
        }
      ]
    },
    {
      "name": "Body_Glass Light _0",
      "primitives": [
        {
          "attributes": {
            "NORMAL": 29,
            "POSITION": 28,
            "TEXCOORD_0": 30
          },
          "indices": 31,
          "material": 3,
          "mode": 4
        }
      ]
    }
  ],
  "nodes": [
    {
      "children": [
        1
      ],
      "matrix": [
        1.0,
        0.0,
        0.0,
        0.0,
        0.0,
        2.220446049250313e-16,
        -1.0,
        0.0,
        0.0,
        1.0,
        2.220446049250313e-16,
        0.0,
        0.0,
        0.0,
        0.0,
        1.0
      ],
      "name": "Sketchfab_model"
    },
    {
      "children": [
        2
      ],
      "matrix": [
        0.02539999969303608,
        0.0,
        0.0,
        0.0,
        0.0,
        0.0,
        0.02539999969303608,
        0.0,
        0.0,
        -0.02539999969303608,
        0.0,
        0.0,
        0.0,
        0.0,
        0.0,
        1.0
      ],
      "name": "15314bd31aee48f88fee5d99723021af.fbx"
    },
    {
      "children": [
        3,
        6,
        9,
        12,
        15
      ],
      "name": "RootNode"
    },
    {
      "children": [
        4
      ],
      "matrix": [
        1.0,
        0.0,
        0.0,
        0.0,
        0.0,
        0.9999999403953419,
        1.6292067079122444e-07,
        0.0,
        0.0,
        -1.6292067079122444e-07,
        0.9999999403953419,
        0.0,
        -22.9166202545166,
        9.809967041015625,
        40.24749755859375,
        1.0
      ],
      "name": "Wheel_FR"
    },
    {
      "children": [
        5
      ],
      "matrix": [
        6.123192388793426e-17,
        0.0,
        -0.9999932050704956,
        0.0,
        -4.214668250968471e-08,
        0.9999960064887992,
        -2.580739991508256e-24,
        0.0,
        0.9999971985816947,
        4.214673275264615e-08,
        6.123216841996963e-17,
        0.0,
        22.91661834716797,
        -3.2208778858184814,
        -105.3311538696289,
        1.0
      ],
      "name": "Object_4"
    },
    {
      "mesh": 0,
      "name": "Wheel_FR_Textures Body 2_0"
    },
    {
      "children": [
        7
      ],
      "matrix": [
        1.0,
        0.0,
        0.0,
        0.0,
        0.0,
        0.9999999403953419,
        1.6292067079122444e-07,
        0.0,
        0.0,
        -1.6292067079122444e-07,
        0.9999999403953419,
        0.0,
        -22.9166202545166,
        9.809967041015625,
        -40.30602264404297,
        1.0
      ],
      "name": "Wheel_BR"
    },
    {
      "children": [
        8
      ],
      "matrix": [
        6.123192388793426e-17,
        0.0,
        -0.9999932050704956,
        0.0,
        -4.214668250968471e-08,
        0.9999960064887992,
        -2.580739991508256e-24,
        0.0,
        0.9999971985816947,
        4.214673275264615e-08,
        6.123216841996963e-17,
        0.0,
        22.91661834716797,
        -3.2208778858184814,
        -105.3311538696289,
        1.0
      ],
      "name": "Object_7"
    },
    {
      "mesh": 1,
      "name": "Wheel_BR_Textures Body 2_0"
    },
    {
      "children": [
        10
      ],
      "matrix": [
        1.0,
        0.0,
        0.0,
        0.0,
        0.0,
        0.9999999403953419,
        1.6292067079122444e-07,
        0.0,
        0.0,
        -1.6292067079122444e-07,
        0.9999999403953419,
        0.0,
        22.916624069213867,
        9.809967994689941,
        40.24749755859375,
        1.0
      ],
      "name": "Wheel_FL"
    },
    {
      "children": [
        11
      ],
      "matrix": [
        6.123192388793426e-17,
        0.0,
        -0.9999932050704956,
        0.0,
        -4.214668250968471e-08,
        0.9999960064887992,
        -2.580739991508256e-24,
        0.0,
        0.9999971985816947,
        4.214673275264615e-08,
        6.123216841996963e-17,
        0.0,
        -22.91661834716797,
        -3.2208778858184814,
        -105.33116149902344,
        1.0
      ],
      "name": "Object_10"
    },
    {
      "mesh": 2,
      "name": "Wheel_FL_Textures Body 2_0"
    },
    {
      "children": [
        13
      ],
      "matrix": [
        1.0,
        0.0,
        0.0,
        0.0,
        0.0,
        0.9999999403953419,
        1.6292067079122444e-07,
        0.0,
        0.0,
        -1.6292067079122444e-07,
        0.9999999403953419,
        0.0,
        22.916624069213867,
        9.809967994689941,
        -40.30602264404297,
        1.0
      ],
      "name": "Wheel_BL"
    },
    {
      "children": [
        14
      ],
      "matrix": [
        6.123192388793426e-17,
        0.0,
        -0.9999932050704956,
        0.0,
        -4.214668250968471e-08,
        0.9999960064887992,
        -2.580739991508256e-24,
        0.0,
        0.9999971985816947,
        4.214673275264615e-08,
        6.123216841996963e-17,
        0.0,
        -22.916610717773438,
        -3.2208778858184814,
        -105.33116149902344,
        1.0
      ],
      "name": "Object_13"
    },
    {
      "mesh": 3,
      "name": "Wheel_BL_Textures Body 2_0"
    },
    {
      "children": [
        16
      ],
      "matrix": [
        1.0,
        0.0,
        0.0,
        0.0,
        0.0,
        0.9999999403953419,
        1.6292067079122444e-07,
        0.0,
        0.0,
        -1.6292067079122444e-07,
        0.9999999403953419,
        0.0,
        2.451576847306569e-06,
        0.0,
        -0.750885009765625,
        1.0
      ],
      "name": "Body"
    },
    {
      "children": [
        17,
        18,
        19,
        20
      ],
      "matrix": [
        6.123192388793426e-17,
        0.0,
        -0.9999932050704956,
        0.0,
        -4.214668250968471e-08,
        0.9999960064887992,
        -2.580739991508256e-24,
        0.0,
        0.9999971985816947,
        4.214673275264615e-08,
        6.123216841996963e-17,
        0.0,
        0.0,
        6.589043140411377,
        -64.33277893066406,
        1.0
      ],
      "name": "Object_16"
    },
    {
      "mesh": 4,
      "name": "Body_Glass_0"
    },
    {
      "mesh": 5,
      "name": "Body_Textures Body 1_0"
    },
    {
      "mesh": 6,
      "name": "Body_Textures Body 2_0"
    },
    {
      "mesh": 7,
      "name": "Body_Glass Light _0"
    }
  ],
  "samplers": [
    {
      "magFilter": 9729,
      "minFilter": 9987,
      "wrapS": 10497,
      "wrapT": 10497
    }
  ],
  "scene": 0,
  "scenes": [
    {
      "name": "Sketchfab_Scene",
      "nodes": [
        0
      ]
    }
  ],
  "textures": [
    {
      "sampler": 0,
      "source": 0
    },
    {
      "sampler": 0,
      "source": 1
    }
  ]
}
